<svg id="Group_2" data-name="Group 2" xmlns="http://www.w3.org/2000/svg" xmlns:xlink="http://www.w3.org/1999/xlink" width="15.616" height="20.13" viewBox="0 0 15.616 20.13">
  <defs>
    <clipPath id="clip-path">
      <path id="Mask" d="M1.027,18.945a.44.44,0,0,1-.106-.286V17.117a2.467,2.467,0,0,1-.815-.58A.438.438,0,0,1,0,16.251V13.617A.438.438,0,0,1,.016,13.5c.088-.48.543-.892,1.33-1.2a9.318,9.318,0,0,1,3.24-.5H4.6V1.815A1.819,1.819,0,0,1,6.427,0h7.366a1.819,1.819,0,0,1,1.823,1.815V16.482A1.819,1.819,0,0,1,13.793,18.3h-3.7v.477a.438.438,0,0,1-.106.286c-.628.732-2.261,1.071-4.48,1.071C3.417,20.13,1.674,19.7,1.027,18.945Zm.778-.469a6.846,6.846,0,0,0,3.7.774,7.2,7.2,0,0,0,3.7-.662V16.552a.287.287,0,0,0-.061-.03.44.44,0,0,1-.082.143c-.635.74-2.317,1.115-4.479,1.115A10.617,10.617,0,0,1,1.8,17.44Zm11.989-1.059a.937.937,0,0,0,.939-.935V1.815A.937.937,0,0,0,13.793.88H6.427a.937.937,0,0,0-.939.935V11.834a8.239,8.239,0,0,1,2.338.47c.877.341,1.342.813,1.345,1.365,0,0,0,0,0,.006v1.909h2.32a.44.44,0,1,1,0,.88h-1.4q0,.009,0,.018v.935ZM.884,16.07a6.688,6.688,0,0,0,3.7.83,7.056,7.056,0,0,0,3.7-.706v-1.36a4,4,0,0,1-.461.212,9.318,9.318,0,0,1-3.24.5,9.318,9.318,0,0,1-3.24-.5,4,4,0,0,1-.462-.212Zm.917-1.8a8.871,8.871,0,0,0,2.785.4,8.87,8.87,0,0,0,2.785-.4c.6-.208.917-.458.917-.6s-.315-.389-.917-.6a8.876,8.876,0,0,0-2.785-.4,8.877,8.877,0,0,0-2.785.4c-.6.208-.917.458-.917.6S1.2,14.064,1.8,14.271Zm7.866-3.29V6.544L8.351,7.855a.443.443,0,0,1-.625,0,.439.439,0,0,1,0-.622l2.068-2.06.014-.014,0,0,0,0a.442.442,0,0,1,.325-.113h.009a.441.441,0,0,1,.163.046h0l0,0h.007l.04.024h0l0,0h0l0,0,0,0h0l0,0h0l0,0h0a.444.444,0,0,1,.046.041l2.069,2.059a.439.439,0,0,1,0,.622.444.444,0,0,1-.625,0L10.551,6.544v4.438a.442.442,0,0,1-.884,0Z" fill="#333"/>
    </clipPath>
  </defs>
  <path id="Mask-2" data-name="Mask" d="M1.027,18.945a.44.44,0,0,1-.106-.286V17.117a2.467,2.467,0,0,1-.815-.58A.438.438,0,0,1,0,16.251V13.617A.438.438,0,0,1,.016,13.5c.088-.48.543-.892,1.33-1.2a9.318,9.318,0,0,1,3.24-.5H4.6V1.815A1.819,1.819,0,0,1,6.427,0h7.366a1.819,1.819,0,0,1,1.823,1.815V16.482A1.819,1.819,0,0,1,13.793,18.3h-3.7v.477a.438.438,0,0,1-.106.286c-.628.732-2.261,1.071-4.48,1.071C3.417,20.13,1.674,19.7,1.027,18.945Zm.778-.469a6.846,6.846,0,0,0,3.7.774,7.2,7.2,0,0,0,3.7-.662V16.552a.287.287,0,0,0-.061-.03.44.44,0,0,1-.082.143c-.635.74-2.317,1.115-4.479,1.115A10.617,10.617,0,0,1,1.8,17.44Zm11.989-1.059a.937.937,0,0,0,.939-.935V1.815A.937.937,0,0,0,13.793.88H6.427a.937.937,0,0,0-.939.935V11.834a8.239,8.239,0,0,1,2.338.47c.877.341,1.342.813,1.345,1.365,0,0,0,0,0,.006v1.909h2.32a.44.44,0,1,1,0,.88h-1.4q0,.009,0,.018v.935ZM.884,16.07a6.688,6.688,0,0,0,3.7.83,7.056,7.056,0,0,0,3.7-.706v-1.36a4,4,0,0,1-.461.212,9.318,9.318,0,0,1-3.24.5,9.318,9.318,0,0,1-3.24-.5,4,4,0,0,1-.462-.212Zm.917-1.8a8.871,8.871,0,0,0,2.785.4,8.87,8.87,0,0,0,2.785-.4c.6-.208.917-.458.917-.6s-.315-.389-.917-.6a8.876,8.876,0,0,0-2.785-.4,8.877,8.877,0,0,0-2.785.4c-.6.208-.917.458-.917.6S1.2,14.064,1.8,14.271Zm7.866-3.29V6.544L8.351,7.855a.443.443,0,0,1-.625,0,.439.439,0,0,1,0-.622l2.068-2.06.014-.014,0,0,0,0a.442.442,0,0,1,.325-.113h.009a.441.441,0,0,1,.163.046h0l0,0h.007l.04.024h0l0,0h0l0,0,0,0h0l0,0h0l0,0h0a.444.444,0,0,1,.046.041l2.069,2.059a.439.439,0,0,1,0,.622.444.444,0,0,1-.625,0L10.551,6.544v4.438a.442.442,0,0,1-.884,0Z" fill="#333"/>
  <g id="Mask_Group_2" data-name="Mask Group 2" clip-path="url(#clip-path)">
    <g id="Red_1_e60000" data-name="Red 1 | #e60000" transform="translate(-0.939 -1.852)">
      <rect id="Rectangle" width="22.099" height="22" fill="#e60000"/>
    </g>
    <rect id="Rectangle-2" data-name="Rectangle" width="22.099" height="22" transform="translate(-0.939 -1.852)" fill="none"/>
  </g>
</svg>
