<svg width="46" height="46" viewBox="0 0 46 46" fill="none" xmlns="http://www.w3.org/2000/svg">
<circle cx="22.425" cy="22.2333" r="10.425" stroke="#333333"/>
<circle cx="41.5919" cy="17.2499" r="3.90833" stroke="#333333"/>
<circle cx="39.0997" cy="40.0582" r="3.90833" stroke="#333333"/>
<circle cx="4.40833" cy="5.17493" r="3.90833" stroke="#333333"/>
<circle cx="26.6419" cy="3.83333" r="3.33333" stroke="#333333"/>
<circle cx="7.09232" cy="39.6751" r="2.75833" stroke="#333333"/>
<path d="M7.0918 8.14575L14.8543 15.1416" stroke="#333333"/>
<path d="M29.9004 29.8999L36.4171 37.5666" stroke="#333333"/>
<path d="M8.81641 37.5667L15.9081 29.9" stroke="#333333"/>
<path d="M24.916 11.6917L25.8743 7.09168" stroke="#333333"/>
<path d="M32.7754 20.3167L37.7587 18.7833" stroke="#333333"/>
<mask id="path-12-inside-1_0_1548" fill="white">
<rect x="16.8672" y="20.24" width="2.76" height="6.9" rx="0.4"/>
</mask>
<rect x="16.8672" y="20.24" width="2.76" height="6.9" rx="0.4" stroke="#333333" stroke-width="2" mask="url(#path-12-inside-1_0_1548)"/>
<path fill-rule="evenodd" clip-rule="evenodd" d="M19.166 20.9453C19.166 20.8774 19.2008 20.8152 19.258 20.7788C19.6143 20.5524 20.8959 19.6844 21.1593 18.7597C21.466 17.6832 20.6227 15.9915 22.0027 15.6839C23.3827 15.3763 23.536 16.7604 23.536 17.3756C23.536 17.8143 23.458 18.9959 23.4133 19.6378C23.3971 19.8698 23.5808 20.0669 23.8133 20.0669H27.4027C27.6601 20.0669 27.8505 20.3065 27.7923 20.5573L26.4445 26.3702C26.4024 26.5515 26.2409 26.6799 26.0548 26.6799H19.566C19.3451 26.6799 19.166 26.5008 19.166 26.2799V20.9453Z" stroke="#333333"/>
</svg>
