<svg id="Group_6" data-name="Group 6" xmlns="http://www.w3.org/2000/svg" xmlns:xlink="http://www.w3.org/1999/xlink" width="18.381" height="18.297" viewBox="0 0 18.381 18.297">
  <defs>
    <clipPath id="clip-path">
      <path id="Mask" d="M11.877,18.174,6.25,12.8H3.206a.442.442,0,0,1-.442-.44V6.38H.443A.435.435,0,0,1,.033,6.1a.431.431,0,0,1,.1-.482L5.892.123a.443.443,0,0,1,.612,0L12.131,5.5h3.045a.442.442,0,0,1,.442.44v5.977h2.32a.44.44,0,0,1,.306.758l-5.755,5.5a.443.443,0,0,1-.612,0Zm.306-.927,4.656-4.45H15.176a.441.441,0,0,1-.442-.44V6.38h-5.1v5.977a.441.441,0,0,1-.442.44H7.527ZM1.542,5.5H3.206a.442.442,0,0,1,.442.44v5.977h5.1V5.94A.441.441,0,0,1,9.19,5.5h1.664L6.2,1.05Z" transform="translate(0)" fill="#333"/>
    </clipPath>
  </defs>
  <path id="Mask-2" data-name="Mask" d="M11.877,18.174,6.25,12.8H3.206a.442.442,0,0,1-.442-.44V6.38H.443A.435.435,0,0,1,.033,6.1a.431.431,0,0,1,.1-.482L5.892.123a.443.443,0,0,1,.612,0L12.131,5.5h3.045a.442.442,0,0,1,.442.44v5.977h2.32a.44.44,0,0,1,.306.758l-5.755,5.5a.443.443,0,0,1-.612,0Zm.306-.927,4.656-4.45H15.176a.441.441,0,0,1-.442-.44V6.38h-5.1v5.977a.441.441,0,0,1-.442.44H7.527ZM1.542,5.5H3.206a.442.442,0,0,1,.442.44v5.977h5.1V5.94A.441.441,0,0,1,9.19,5.5h1.664L6.2,1.05Z" transform="translate(0)" fill="#333"/>
  <g id="Mask_Group_6" data-name="Mask Group 6" clip-path="url(#clip-path)">
    <g id="Red_1_e60000" data-name="Red 1 | #e60000" transform="translate(-1.859 -1.852)">
      <rect id="Rectangle" width="22.099" height="22" fill="#e60000"/>
    </g>
  </g>
</svg>
