<svg id="Just_4_You_Bottom_Nav" data-name="Just 4 You Bottom Nav" xmlns="http://www.w3.org/2000/svg" width="25.193" height="26" viewBox="0 0 25.193 26">
  <g id="Group_3" data-name="Group 3" transform="translate(1.866 0.72)">
    <g id="Rectangle" transform="translate(1.896 14.104)" fill="none" stroke="#333" stroke-miterlimit="10" stroke-width="1.2">
      <rect width="19.908" height="11.176" stroke="none"/>
      <rect x="0.6" y="0.6" width="18.708" height="9.976" fill="none"/>
    </g>
    <g id="Rectangle-2" data-name="Rectangle" transform="translate(10.428 14.104)" fill="none" stroke="#333" stroke-miterlimit="10" stroke-width="1.2">
      <rect width="3.792" height="11.176" stroke="none"/>
      <rect x="0.6" y="0.6" width="2.592" height="9.976" fill="none"/>
    </g>
    <path id="Path_5" data-name="Path 5" d="M0,6.492,20.538,0,21.8,3.88,1.019,10.16Z" transform="translate(0 3.944)" fill="none" stroke="#333" stroke-miterlimit="10" stroke-width="1.2"/>
    <path id="Path_6" data-name="Path 6" d="M.948,4.064,0,0" transform="translate(8.532 8.008)" fill="none" stroke="#333" stroke-miterlimit="10" stroke-width="1.2"/>
    <path id="Path_7" data-name="Path 7" d="M0,0,.948,4.064" transform="translate(12.324 6.992)" fill="none" stroke="#333" stroke-miterlimit="10" stroke-width="1.2"/>
    <path id="Path_8" data-name="Path 8" d="M6.643,4.788S2.824-2.8.506,1.64,6.643,4.788,6.643,4.788Z" transform="translate(2.837 1.912)" fill="none" stroke="#333" stroke-miterlimit="10" stroke-width="1.2"/>
    <path id="Path_8-2" data-name="Path 8" d="M-4.964,7.112S-5.686-2.119-1.738.632-4.964,7.112-4.964,7.112Z" transform="translate(15.504 -0.12)" fill="none" stroke="#333" stroke-miterlimit="10" stroke-width="1.2"/>
  </g>
</svg>
