<svg id="_4px_colour_mask" data-name="4px colour mask" xmlns="http://www.w3.org/2000/svg" xmlns:xlink="http://www.w3.org/1999/xlink" width="51" height="51" viewBox="0 0 51 51">
  <defs>
    <clipPath id="clip-path">
      <path id="Mask" d="M15.574,49A25.582,25.582,0,1,1,25.5,51,25.417,25.417,0,0,1,15.574,49ZM2.453,25.5A23.047,23.047,0,1,0,25.5,2.453,23.073,23.073,0,0,0,2.453,25.5ZM25.646,37.475q-.072.007-.147.007a1.538,1.538,0,0,1-1.536-1.536q0-.074.007-.146t-.007-.161a1.843,1.843,0,1,1,1.844,1.844Q25.726,37.482,25.646,37.475ZM24.578,29.5V14.122a1.229,1.229,0,0,1,2.458,0V29.5a1.229,1.229,0,0,1-2.458,0Z" fill="#333"/>
    </clipPath>
  </defs>
  <g id="Group_9" data-name="Group 9">
    <path id="Mask-2" data-name="Mask" d="M15.574,49A25.582,25.582,0,1,1,25.5,51,25.417,25.417,0,0,1,15.574,49ZM2.453,25.5A23.047,23.047,0,1,0,25.5,2.453,23.073,23.073,0,0,0,2.453,25.5ZM25.646,37.475q-.072.007-.147.007a1.538,1.538,0,0,1-1.536-1.536q0-.074.007-.146t-.007-.161a1.843,1.843,0,1,1,1.844,1.844Q25.726,37.482,25.646,37.475ZM24.578,29.5V14.122a1.229,1.229,0,0,1,2.458,0V29.5a1.229,1.229,0,0,1-2.458,0Z" fill="#333"/>
    <g id="Mask_Group_9" data-name="Mask Group 9" clip-path="url(#clip-path)">
      <g id="Red_1_e60000" data-name="Red 1 | #e60000">
        <rect id="Rectangle" width="51" height="51" fill="#e60000"/>
      </g>
    </g>
  </g>
</svg>
