<svg xmlns="http://www.w3.org/2000/svg" width="50.678" height="38.463" viewBox="0 0 50.678 38.463">
  <g id="Ts_Cs_Feature_Phone" data-name="Ts &amp; Cs Feature Phone" transform="translate(0.5 0.5)">
    <g id="Group_5_Copy" data-name="Group 5 Copy">
      <path id="Path_3" data-name="Path 3" d="M9.562,2.489V7.568a2,2,0,0,1-2,2H0L9.562,0H30.584a2,2,0,0,1,2,2V35.463a2,2,0,0,1-2,2H2a2,2,0,0,1-2-2V11.919" fill="none" stroke="#979797" stroke-linecap="round" stroke-linejoin="round" stroke-miterlimit="10" stroke-width="1"/>
      <g id="Group_3" data-name="Group 3" transform="translate(6.18 12.978)">
        <path id="Path_4" data-name="Path 4" d="M0,.063H4.494" transform="translate(0 0.534)" fill="none" stroke="#979797" stroke-linecap="round" stroke-miterlimit="10" stroke-width="1"/>
        <path id="Path_4_Copy_4" data-name="Path 4 Copy 4" d="M0,.421,4.3.412" transform="translate(14.045 9.551)" fill="none" stroke="#979797" stroke-linecap="round" stroke-miterlimit="10" stroke-width="1"/>
        <path id="Path_4_Copy_6" data-name="Path 4 Copy 6" d="M0,.421,4.3.412" transform="translate(7.303 19.101)" fill="none" stroke="#979797" stroke-linecap="round" stroke-miterlimit="10" stroke-width="1"/>
        <path id="Path_4_Copy_7" data-name="Path 4 Copy 7" d="M0,.421,4.3.412" transform="translate(0 19.101)" fill="none" stroke="#979797" stroke-linecap="round" stroke-miterlimit="10" stroke-width="1"/>
        <path id="Path_4_Copy" data-name="Path 4 Copy" d="M0,.421,10.481.412" transform="translate(7.865)" fill="none" stroke="#979797" stroke-linecap="round" stroke-miterlimit="10" stroke-width="1"/>
        <path id="Path_4_Copy_3" data-name="Path 4 Copy 3" d="M0,.421,10.481.412" transform="translate(0 9.551)" fill="none" stroke="#979797" stroke-linecap="round" stroke-miterlimit="10" stroke-width="1"/>
        <path id="Path_4_Copy_2" data-name="Path 4 Copy 2" d="M.069.412H18.34" transform="translate(0 5.056)" fill="none" stroke="#979797" stroke-linecap="round" stroke-miterlimit="10" stroke-width="1"/>
        <path id="Path_4_Copy_5" data-name="Path 4 Copy 5" d="M.068.412h13.78" transform="translate(0 14.607)" fill="none" stroke="#979797" stroke-linecap="round" stroke-miterlimit="10" stroke-width="1"/>
      </g>
      <g id="Group_4" data-name="Group 4" transform="translate(22.472 5.112)">
        <rect id="Rectangle" width="3.933" height="12.36" transform="translate(8.427 11.236)" fill="#fff"/>
        <g id="Group_2" data-name="Group 2">
          <path id="Path_5" data-name="Path 5" d="M24.74.71a1,1,0,0,0-1.415,0l-21.6,21.52L.614,25.636a1,1,0,0,0,1.271,1.256l3.38-1.14L22.129,8.91l4.694-4.688a1,1,0,0,0,0-1.412Z" fill="#fff" stroke="#979797" stroke-miterlimit="10" stroke-width="1"/>
          <path id="Path_6" data-name="Path 6" d="M.281,19.944,19.944.281" transform="translate(3.371 3.933)" fill="none" stroke="#979797" stroke-miterlimit="10" stroke-width="1"/>
          <path id="Path_7" data-name="Path 7" d="M.281.281,3.933,3.933" transform="translate(21.348 2.247)" fill="none" stroke="#979797" stroke-miterlimit="10" stroke-width="1"/>
          <path id="Path_7_Copy" data-name="Path 7 Copy" d="M0,0,3.924,3.918" transform="translate(1.685 21.91)" fill="none" stroke="#979797" stroke-miterlimit="10" stroke-width="1"/>
        </g>
      </g>
    </g>
  </g>
</svg>
