<svg xmlns="http://www.w3.org/2000/svg" xmlns:xlink="http://www.w3.org/1999/xlink" width="18.296" height="18.295" viewBox="0 0 18.296 18.295">
  <defs>
    <clipPath id="clip-path">
      <path id="Mask" d="M14.89,18.295a5.29,5.29,0,0,1-1.016-.123,8.673,8.673,0,0,1-1.892-.666,24.036,24.036,0,0,1-6.4-4.894A23.722,23.722,0,0,1,.747,6.2,8.423,8.423,0,0,1,.107,4.32,5.134,5.134,0,0,1,0,3.313C-.017,2.534,1.495,1.12,2.725.285A1.332,1.332,0,0,1,4.543.428c.187.26,2.168,3.286,2.437,3.716a1.472,1.472,0,0,1-.1,1.46c-.081.151-.259.46-.509.885l-.012.02c-.122.208-.253.429-.383.65l-.035.058c.1.141.219.307.369.5a25.877,25.877,0,0,0,2.006,2.23,13.066,13.066,0,0,0,1.127.983q.169.135.351.276c.409.318.849.645,1.289.963l.325.233,1.216-.918a.43.43,0,0,1,.064-.04,1.52,1.52,0,0,1,1.466-.081c.356.223,3.438,2.277,3.715,2.475a1.3,1.3,0,0,1,.116,1.815c-.866,1.2-2.287,2.641-3.074,2.642Z" transform="translate(0 0)" fill="#333"/>
    </clipPath>
  </defs>
  <g id="Group_1" data-name="Group 1" transform="translate(0 0)">
    <path id="Mask-2" data-name="Mask" d="M14.89,18.295a5.29,5.29,0,0,1-1.016-.123,8.673,8.673,0,0,1-1.892-.666,24.036,24.036,0,0,1-6.4-4.894A23.722,23.722,0,0,1,.747,6.2,8.423,8.423,0,0,1,.107,4.32,5.134,5.134,0,0,1,0,3.313C-.017,2.534,1.495,1.12,2.725.285A1.332,1.332,0,0,1,4.543.428c.187.26,2.168,3.286,2.437,3.716a1.472,1.472,0,0,1-.1,1.46c-.081.151-.259.46-.509.885l-.012.02c-.122.208-.253.429-.383.65l-.035.058c.1.141.219.307.369.5a25.877,25.877,0,0,0,2.006,2.23,13.066,13.066,0,0,0,1.127.983q.169.135.351.276c.409.318.849.645,1.289.963l.325.233,1.216-.918a.43.43,0,0,1,.064-.04,1.52,1.52,0,0,1,1.466-.081c.356.223,3.438,2.277,3.715,2.475a1.3,1.3,0,0,1,.116,1.815c-.866,1.2-2.287,2.641-3.074,2.642Z" transform="translate(0 0)" fill="#333"/>
    <g id="Mask_Group_1" data-name="Mask Group 1" clip-path="url(#clip-path)">
      <g id="Red_1_e60000" data-name="Red 1 | #e60000" transform="translate(-1.852 -1.853)">
        <rect id="Rectangle" width="22" height="22" fill="#e60000"/>
      </g>
    </g>
  </g>
</svg>
